#tb 0: 1/25
0,          0,          0,        1,   149760, 0x1d68213a
0,          1,          1,        1,   149760, 0x9cc81d30
0,          2,          2,        1,   149760, 0xa3cf6438
0,          3,          3,        1,   149760, 0x6acf213a
0,          4,          4,        1,   149760, 0x0f75ce7b
0,          5,          5,        1,   149760, 0x5e0286a7
0,          6,          6,        1,   149760, 0xc62cd2b0
0,          7,          7,        1,   149760, 0x7d9af3ac
0,          8,          8,        1,   149760, 0x9d58afc7
0,          9,          9,        1,   149760, 0x91c5ad7f
0,         10,         10,        1,   149760, 0xc43c5b0a
0,         11,         11,        1,   149760, 0x6b8cc1a5
0,         12,         12,        1,   149760, 0x4cebb13e
0,         13,         13,        1,   149760, 0xca136846
0,         14,         14,        1,   149760, 0xba22e581
0,         15,         15,        1,   149760, 0x2844ddd3
0,         16,         16,        1,   149760, 0xf943399e
